<svg width="64" height="68" viewBox="0 0 64 68" fill="none" xmlns="http://www.w3.org/2000/svg">
<g filter="url(#filter0_b_1633_1033)">
<path fill-rule="evenodd" clip-rule="evenodd" d="M6.46751 21.6949C6.46751 28.4146 12.0956 33.7997 19.1186 33.7997C26.1391 33.7997 31.7697 28.4146 31.7697 21.6949C31.7697 14.9752 26.1391 9.59015 19.1186 9.59015C12.0956 9.59015 6.46751 14.9752 6.46751 21.6949ZM38.2383 47.5052C38.2383 41.2848 29.4309 39.7284 19.1191 39.7284C8.75131 39.7284 -8.39233e-05 41.3383 -8.39233e-05 47.5636C-8.39233e-05 53.7841 8.80731 55.3404 19.1191 55.3404C29.4869 55.3404 38.2383 53.7305 38.2383 47.5052Z" fill="url(#paint0_linear_1633_1033)"/>
</g>
<g filter="url(#filter1_f_1633_1033)">
<path d="M23.2715 43.718C29.5674 43.718 34.9448 44.7516 34.9448 48.8828C34.9448 53.0172 29.6016 54.0864 23.2715 54.0864C16.9756 54.0864 11.5981 53.0528 11.5981 48.9216C11.5981 44.7872 16.9414 43.718 23.2715 43.718Z" fill="#ACCDFF" fill-opacity="0.5"/>
</g>
<g filter="url(#filter2_f_1633_1033)">
<path d="M22.2104 27.8199C18.6757 27.8199 15.8431 25.0523 15.8431 21.5988C15.8431 18.1453 18.6757 15.3778 22.2104 15.3778C25.7437 15.3778 28.5776 18.1453 28.5776 21.5988C28.5776 25.0523 25.7437 27.8199 22.2104 27.8199Z" fill="#ACCDFF" fill-opacity="0.5"/>
</g>
<g filter="url(#filter3_b_1633_1033)">
<mask id="path-4-outside-1_1633_1033" maskUnits="userSpaceOnUse" x="11" y="4" width="53" height="62" fill="black">
<rect fill="white" x="11" y="4" width="53" height="62"/>
<path fill-rule="evenodd" clip-rule="evenodd" d="M21.3354 20.8747C21.3354 29.6872 28.7163 36.7494 37.9265 36.7494C47.1335 36.7494 54.5177 29.6872 54.5177 20.8747C54.5177 12.0622 47.1335 5 37.9265 5C28.7163 5 21.3354 12.0622 21.3354 20.8747ZM63 54.7246C63 46.5668 51.4496 44.5258 37.9263 44.5258C24.3295 44.5258 12.8526 46.6371 12.8526 54.8012C12.8526 62.959 24.403 65 37.9263 65C51.523 65 63 62.8887 63 54.7246Z"/>
</mask>
<path fill-rule="evenodd" clip-rule="evenodd" d="M21.3354 20.8747C21.3354 29.6872 28.7163 36.7494 37.9265 36.7494C47.1335 36.7494 54.5177 29.6872 54.5177 20.8747C54.5177 12.0622 47.1335 5 37.9265 5C28.7163 5 21.3354 12.0622 21.3354 20.8747ZM63 54.7246C63 46.5668 51.4496 44.5258 37.9263 44.5258C24.3295 44.5258 12.8526 46.6371 12.8526 54.8012C12.8526 62.959 24.403 65 37.9263 65C51.523 65 63 62.8887 63 54.7246Z" fill="#ACCDFF" fill-opacity="0.4"/>
<path d="M37.9265 37.7494C28.206 37.7494 20.3354 30.2807 20.3354 20.8747H22.3354C22.3354 29.0938 29.2265 35.7494 37.9265 35.7494V37.7494ZM55.5177 20.8747C55.5177 30.2808 47.6436 37.7494 37.9265 37.7494V35.7494C46.6234 35.7494 53.5177 29.0937 53.5177 20.8747H55.5177ZM37.9265 4C47.6436 4 55.5177 11.4686 55.5177 20.8747H53.5177C53.5177 12.6557 46.6234 6 37.9265 6V4ZM20.3354 20.8747C20.3354 11.4687 28.206 4 37.9265 4V6C29.2265 6 22.3354 12.6556 22.3354 20.8747H20.3354ZM37.9263 43.5258C44.7091 43.5258 51.1128 44.034 55.8514 45.6176C58.2256 46.4111 60.2564 47.4984 61.7029 48.9944C63.1732 50.5151 64 52.4199 64 54.7246H62C62 52.9503 61.383 51.5408 60.265 50.3846C59.1231 49.2035 57.4212 48.251 55.2174 47.5145C50.8 46.0382 44.6667 45.5258 37.9263 45.5258V43.5258ZM11.8526 54.8012C11.8526 52.4974 12.6729 50.5883 14.1359 49.06C15.5756 47.5559 17.5992 46.4582 19.9697 45.6549C24.7004 44.0517 31.1052 43.5258 37.9263 43.5258V45.5258C31.1506 45.5258 25.0186 46.0556 20.6116 47.5491C18.4133 48.2941 16.7178 49.255 15.5807 50.4429C14.4668 51.6066 13.8526 53.023 13.8526 54.8012H11.8526ZM37.9263 66C31.1434 66 24.7398 65.4918 20.0012 63.9082C17.627 63.1147 15.5961 62.0274 14.1497 60.5314C12.6794 59.0107 11.8526 57.1059 11.8526 54.8012H13.8526C13.8526 56.5755 14.4696 57.985 15.5876 59.1412C16.7294 60.3223 18.4314 61.2748 20.6352 62.0113C25.0526 63.4876 31.1858 64 37.9263 64V66ZM64 54.7246C64 57.0284 63.1796 58.9375 61.7167 60.4658C60.2769 61.9699 58.2534 63.0676 55.8829 63.8709C51.1522 65.4741 44.7474 66 37.9263 66V64C44.7019 64 50.834 63.4702 55.241 61.9767C57.4393 61.2317 59.1348 60.2708 60.2719 59.0829C61.3857 57.9192 62 56.5028 62 54.7246H64Z" fill="url(#paint1_linear_1633_1033)" mask="url(#path-4-outside-1_1633_1033)"/>
</g>
<defs>
<filter id="filter0_b_1633_1033" x="-13" y="-3.40985" width="64.2383" height="71.7502" filterUnits="userSpaceOnUse" color-interpolation-filters="sRGB">
<feFlood flood-opacity="0" result="BackgroundImageFix"/>
<feGaussianBlur in="BackgroundImageFix" stdDeviation="6.5"/>
<feComposite in2="SourceAlpha" operator="in" result="effect1_backgroundBlur_1633_1033"/>
<feBlend mode="normal" in="SourceGraphic" in2="effect1_backgroundBlur_1633_1033" result="shape"/>
</filter>
<filter id="filter1_f_1633_1033" x="-1.40186" y="30.718" width="49.3467" height="36.3684" filterUnits="userSpaceOnUse" color-interpolation-filters="sRGB">
<feFlood flood-opacity="0" result="BackgroundImageFix"/>
<feBlend mode="normal" in="SourceGraphic" in2="BackgroundImageFix" result="shape"/>
<feGaussianBlur stdDeviation="6.5" result="effect1_foregroundBlur_1633_1033"/>
</filter>
<filter id="filter2_f_1633_1033" x="0.843262" y="0.377808" width="42.7344" height="42.442" filterUnits="userSpaceOnUse" color-interpolation-filters="sRGB">
<feFlood flood-opacity="0" result="BackgroundImageFix"/>
<feBlend mode="normal" in="SourceGraphic" in2="BackgroundImageFix" result="shape"/>
<feGaussianBlur stdDeviation="7.5" result="effect1_foregroundBlur_1633_1033"/>
</filter>
<filter id="filter3_b_1633_1033" x="-3.14746" y="-11" width="82.1475" height="92" filterUnits="userSpaceOnUse" color-interpolation-filters="sRGB">
<feFlood flood-opacity="0" result="BackgroundImageFix"/>
<feGaussianBlur in="BackgroundImageFix" stdDeviation="7.5"/>
<feComposite in2="SourceAlpha" operator="in" result="effect1_backgroundBlur_1633_1033"/>
<feBlend mode="normal" in="SourceGraphic" in2="effect1_backgroundBlur_1633_1033" result="shape"/>
</filter>
<linearGradient id="paint0_linear_1633_1033" x1="16.304" y1="35.5289" x2="51.9586" y2="50.0185" gradientUnits="userSpaceOnUse">
<stop stop-color="#ACCDFF"/>
<stop offset="1" stop-color="#ACCDFF"/>
</linearGradient>
<linearGradient id="paint1_linear_1633_1033" x1="55.0173" y1="11.9901" x2="15.888" y2="52.4947" gradientUnits="userSpaceOnUse">
<stop stop-color="white" stop-opacity="0.25"/>
<stop offset="1" stop-color="white" stop-opacity="0"/>
</linearGradient>
</defs>
</svg>
